<svg width="24" height="24" viewBox="0 0 24 24" fill="none" xmlns="http://www.w3.org/2000/svg">
<path d="M7.97005 10.386H16.03M7.97005 14.614H13.718M12 21.75C14.0094 21.7496 15.964 21.0948 17.5682 19.8848C19.1725 18.6748 20.339 16.9753 20.8915 15.0434C21.444 13.1115 21.3524 11.0521 20.6305 9.1769C19.9086 7.30167 18.5958 5.71249 16.8904 4.64971C15.1851 3.58694 13.1801 3.10837 11.1786 3.28638C9.17712 3.46439 7.28803 4.2893 5.79703 5.63636C4.30603 6.98341 3.29422 8.77934 2.91462 10.7525C2.53501 12.7258 2.80827 14.7689 3.69305 16.573C3.80105 16.793 3.83705 17.041 3.78205 17.279L2.96605 20.815C2.94304 20.9142 2.94568 21.0177 2.97372 21.1156C3.00175 21.2136 3.05425 21.3027 3.12628 21.3748C3.19831 21.4468 3.28749 21.4993 3.38543 21.5273C3.48336 21.5554 3.58681 21.558 3.68605 21.535L7.22105 20.718C7.45972 20.6657 7.70912 20.6975 7.92705 20.808C9.19444 21.4304 10.5881 21.7527 12 21.75Z" stroke="black" stroke-width="1.5" stroke-linecap="round" stroke-linejoin="round"/>
</svg>