<svg width="24" height="24" viewBox="0 0 20 22" fill="none" xmlns="http://www.w3.org/2000/svg">
<path fill-rule="evenodd" clip-rule="evenodd" d="M18 0.685547C18.5304 0.685547 19.0391 0.89626 19.4142 1.27133C19.7893 1.64641 20 2.15511 20 2.68555V16.6855C20 17.216 19.7893 17.7247 19.4142 18.0998C19.0391 18.4748 18.5304 18.6855 18 18.6855H2C1.46957 18.6855 0.960859 18.4748 0.585786 18.0998C0.210714 17.7247 0 17.216 0 16.6855V2.68555C0 2.15511 0.210714 1.64641 0.585786 1.27133C0.960859 0.89626 1.46957 0.685547 2 0.685547H18ZM18 2.68555H2V16.6855H18V2.68555ZM15 12.6855C15.2549 12.6858 15.5 12.7834 15.6854 12.9584C15.8707 13.1334 15.9822 13.3725 15.9972 13.6269C16.0121 13.8814 15.9293 14.1319 15.7657 14.3274C15.6021 14.5228 15.3701 14.6484 15.117 14.6785L15 14.6855H5C4.74512 14.6853 4.49997 14.5877 4.31463 14.4127C4.1293 14.2377 4.01777 13.9986 4.00283 13.7442C3.98789 13.4897 4.07067 13.2392 4.23426 13.0437C4.39786 12.8483 4.6299 12.7227 4.883 12.6925L5 12.6855H15ZM8 4.68555C8.53043 4.68555 9.03914 4.89626 9.41421 5.27133C9.78929 5.64641 10 6.15511 10 6.68555V8.68555C10 9.21598 9.78929 9.72469 9.41421 10.0998C9.03914 10.4748 8.53043 10.6855 8 10.6855H6C5.46957 10.6855 4.96086 10.4748 4.58579 10.0998C4.21071 9.72469 4 9.21598 4 8.68555V6.68555C4 6.15511 4.21071 5.64641 4.58579 5.27133C4.96086 4.89626 5.46957 4.68555 6 4.68555H8ZM15 8.68555C15.2652 8.68555 15.5196 8.7909 15.7071 8.97844C15.8946 9.16598 16 9.42033 16 9.68555C16 9.95076 15.8946 10.2051 15.7071 10.3927C15.5196 10.5802 15.2652 10.6855 15 10.6855H12C11.7348 10.6855 11.4804 10.5802 11.2929 10.3927C11.1054 10.2051 11 9.95076 11 9.68555C11 9.42033 11.1054 9.16598 11.2929 8.97844C11.4804 8.7909 11.7348 8.68555 12 8.68555H15ZM8 6.68555H6V8.68555H8V6.68555ZM15 4.68555C15.2549 4.68583 15.5 4.78343 15.6854 4.9584C15.8707 5.13336 15.9822 5.3725 15.9972 5.62694C16.0121 5.88138 15.9293 6.13193 15.7657 6.32738C15.6021 6.52283 15.3701 6.64844 15.117 6.67855L15 6.68555H12C11.7451 6.68526 11.5 6.58767 11.3146 6.4127C11.1293 6.23773 11.0178 5.99859 11.0028 5.74415C10.9879 5.48971 11.0707 5.23917 11.2343 5.04371C11.3979 4.84826 11.6299 4.72265 11.883 4.69255L12 4.68555H15Z" fill="black"/>
</svg>
