<svg width="30" height="30" viewBox="0 0 30 30" fill="none" xmlns="http://www.w3.org/2000/svg">
<path d="M21.1849 14.064C21.7582 19.104 24.0132 20.6277 24.0132 20.6277H6.25C6.25 20.6277 9.21053 18.6276 9.21053 11.6261C9.21053 10.0348 9.83421 8.50832 10.9444 7.38312C12.0546 6.25792 13.5625 5.625 15.1316 5.625C15.4651 5.625 15.7941 5.65313 16.1184 5.70939M16.8388 23.4407C16.6653 23.7248 16.4163 23.9607 16.1167 24.1247C15.817 24.2887 15.4773 24.375 15.1316 24.375C14.7858 24.375 14.4461 24.2887 14.1465 24.1247C13.8469 23.9607 13.5978 23.7248 13.4243 23.4407M22.0395 11.251C22.8247 11.251 23.5777 10.9546 24.1329 10.4271C24.6881 9.89955 25 9.18405 25 8.438C25 7.69194 24.6881 6.97645 24.1329 6.44891C23.5777 5.92137 22.8247 5.625 22.0395 5.625C21.2543 5.625 20.5013 5.92137 19.9461 6.44891C19.3909 6.97645 19.0789 7.69194 19.0789 8.438C19.0789 9.18405 19.3909 9.89955 19.9461 10.4271C20.5013 10.9546 21.2543 11.251 22.0395 11.251Z" stroke="black" stroke-width="1.5" stroke-linecap="round" stroke-linejoin="round"/>
</svg>