<svg width="30" height="30" viewBox="0 0 30 30" fill="none" xmlns="http://www.w3.org/2000/svg">
<path d="M15.315 23.1322C16.1061 23.0781 16.8906 22.9517 17.6587 22.7547C18.6075 23.0398 19.6088 23.1044 20.5863 22.9434C20.6253 22.9386 20.6645 22.9357 20.7038 22.9347C21.0525 22.9347 21.51 23.1347 22.1775 23.5559V22.8634C22.1778 22.7428 22.2104 22.6244 22.272 22.5206C22.3335 22.4169 22.4218 22.3315 22.5275 22.2734C22.8183 22.1092 23.0871 21.9247 23.3337 21.7197C24.3062 20.9072 24.855 19.8222 24.855 18.6747C24.855 18.2959 24.795 17.9184 24.6762 17.5584C24.9712 17.0159 25.2063 16.4496 25.3813 15.8596C25.9438 16.6909 26.2463 17.6721 26.25 18.6747C26.25 20.2347 25.515 21.6896 24.2412 22.7534C24.0279 22.9309 23.805 23.0942 23.5725 23.2434V24.8659C23.5725 25.4234 22.92 25.7447 22.46 25.4122C22.0242 25.0914 21.5737 24.7911 21.11 24.5122C20.9761 24.4349 20.8375 24.366 20.695 24.3059C20.308 24.3632 19.9174 24.392 19.5263 24.3922C17.9388 24.3922 16.4712 23.9209 15.315 23.1322ZM6.91375 19.8884C4.90875 18.2097 3.75 15.9209 3.75 13.4684C3.75 8.4584 8.54 4.45215 14.3888 4.45215C20.2387 4.45215 25.03 8.45715 25.03 13.4684C25.03 18.4784 20.2387 22.4834 14.3888 22.4834C13.7312 22.4834 13.0833 22.4334 12.445 22.3334C12.17 22.3972 11.0675 23.0434 9.48 24.1872C8.905 24.6022 8.09 24.2022 8.09 23.5034V20.7372C7.67828 20.4826 7.28558 20.1985 6.915 19.8872M12.4838 20.6272C12.5321 20.6272 12.5808 20.6309 12.63 20.6384C13.205 20.7334 13.7912 20.7813 14.3888 20.7822C19.33 20.7822 23.2838 17.4759 23.2838 13.4671C23.2838 9.45965 19.33 6.1534 14.39 6.1534C9.45 6.1534 5.49375 9.46215 5.49375 13.4684C5.49375 15.4059 6.41875 17.2309 8.05125 18.5972C8.46292 18.9405 8.91125 19.2488 9.39625 19.5222C9.52781 19.5952 9.63764 19.7018 9.7145 19.8312C9.79137 19.9605 9.83252 20.1079 9.83375 20.2584V21.8534C11.09 21.0222 11.9163 20.6272 12.4838 20.6272Z" fill="black"/>
<path d="M10.0781 15C10.4511 15 10.8088 14.8518 11.0725 14.5881C11.3362 14.3244 11.4844 13.9667 11.4844 13.5938C11.4844 13.2208 11.3362 12.8631 11.0725 12.5994C10.8088 12.3357 10.4511 12.1875 10.0781 12.1875C9.70517 12.1875 9.34748 12.3357 9.08376 12.5994C8.82003 12.8631 8.67188 13.2208 8.67188 13.5938C8.67188 13.9667 8.82003 14.3244 9.08376 14.5881C9.34748 14.8518 9.70517 15 10.0781 15ZM14.6494 15C15.0223 15 15.38 14.8518 15.6437 14.5881C15.9075 14.3244 16.0556 13.9667 16.0556 13.5938C16.0556 13.2208 15.9075 12.8631 15.6437 12.5994C15.38 12.3357 15.0223 12.1875 14.6494 12.1875C14.2764 12.1875 13.9187 12.3357 13.655 12.5994C13.3913 12.8631 13.2431 13.2208 13.2431 13.5938C13.2431 13.9667 13.3913 14.3244 13.655 14.5881C13.9187 14.8518 14.2764 15 14.6494 15ZM19.2194 15C19.5923 15 19.95 14.8518 20.2137 14.5881C20.4775 14.3244 20.6256 13.9667 20.6256 13.5938C20.6256 13.2208 20.4775 12.8631 20.2137 12.5994C19.95 12.3357 19.5923 12.1875 19.2194 12.1875C18.8464 12.1875 18.4887 12.3357 18.225 12.5994C17.9613 12.8631 17.8131 13.2208 17.8131 13.5938C17.8131 13.9667 17.9613 14.3244 18.225 14.5881C18.4887 14.8518 18.8464 15 19.2194 15Z" fill="black"/>
</svg>